<svg xmlns="http://www.w3.org/2000/svg" xmlns:xlink="http://www.w3.org/1999/xlink" width="221.4" height="300.9" viewBox="0 0 221.4 300.9">
  <defs>
    <clipPath id="clip-path" transform="translate(-0.5)">
      <rect width="211.9" height="291.5" style="fill: none"/>
    </clipPath>
  </defs>
  <title>Ativo 2</title>
  <g id="Camada_2" data-name="Camada 2">
    <g id="Camada_1-2" data-name="Camada 1">
      <g>
        <g style="clip-path: url(#clip-path)">
          <rect y="54.2" width="39.1" height="142.2" style="fill: #fff"/>
        </g>
        <g style="clip-path: url(#clip-path)">
          <g style="clip-path: url(#clip-path)">
            <path d="M121.4,166.6c-1,.1-2,.3-3.1.4q-3,.3-6.3.3-9.9,0-13.2-3.3t-3.3-13.2V80.4h28.6V54.3H95.5V11.5H56.4V54.1H32.8V80.2H56.5v83.9c0,7.2,1.2,12.9,3.6,17.3a25.35,25.35,0,0,0,9.8,10.2,39.6,39.6,0,0,0,14.3,4.8,121.74,121.74,0,0,0,15.3,1.2Z" transform="translate(-0.5)" style="fill: #fff"/>
          </g>
          <g style="clip-path: url(#clip-path)">
            <rect width="39.1" height="32.2" style="fill: #fff"/>
          </g>
          <g style="clip-path: url(#clip-path)">
            <g style="clip-path: url(#clip-path)">
              <g style="clip-path: url(#clip-path)">
                <g style="clip-path: url(#clip-path)">
                  <path d="M169.9,102h.6V233.8H76.4Zm-.8-8.1L70.6,232.6v7h99.9v51.3h5.8V239.5h35.6v-5.8H176.3V93.9Z" transform="translate(-0.5)" style="fill: #fff;stroke: #fff;stroke-miterlimit: 10;stroke-width: 20px"/>
                </g>
              </g>
            </g>
          </g>
        </g>
      </g>
    </g>
  </g>
</svg>
